# xmcd
#
# Track frame offsets:
# 150
# 12676
# 29849
# 45060
# 61005
# 76112
# 92664
# 106256
# 122256
# 133383
# 153485
# 179393
# 196495
# 212093
# 228304
# 244627
# 260578
# 274358
#
# Disc length: 3857 seconds
#
#
# Revision: 0
# Processed by: cddbd v1.5.2PL0 Copyright (c) Steve Scherf et al.
# Submitted via: FreeRIP 2.951 
#
DISCID=f40f0f12
DTITLE=César Menotti and Fabiano - Dose dupla 2006
DYEAR=2006
DGENRE=Country
TTITLE0=Mensagem pra ela
TTITLE1=Meu melhor amor
TTITLE2=Leilão
TTITLE3=Quero
TTITLE4=Palavras de amor
TTITLE5=Por toda vida
TTITLE6=Como um anjo
TTITLE7=Soldade matadeira
TTITLE8=Aqui não
TTITLE9=Tentei te esquecer
TTITLE10=Lugar melhor que br
TTITLE11=Pago pra ver
TTITLE12=Telefone mudo
TTITLE13=Amor sem fim
TTITLE14=Me apaixonei
TTITLE15=Caminhos do amor
TTITLE16=Sem medo de ser feliz
TTITLE17=Vem me namorar
EXTD=Mais Nechivile ao Vivo
EXTT0=
EXTT1=
EXTT2=
EXTT3=
EXTT4=
EXTT5=
EXTT6=
EXTT7=
EXTT8=
EXTT9=
EXTT10=
EXTT11=
EXTT12=
EXTT13=
EXTT14=
EXTT15=
EXTT16=
EXTT17=
PLAYORDER=
